<svg id="Capa_1" data-name="Capa 1" xmlns="http://www.w3.org/2000/svg" viewBox="0 0 390 390"><defs><style>.cls-1{fill:#fff;}.cls-2{fill:#0b0c0d;}</style></defs><title>Dealers1_Desktop</title><circle class="cls-1" cx="99.17" cy="269.56" r="21.8"/><circle class="cls-1" cx="284.85" cy="267.71" r="23.88"/><path class="cls-2" d="M286.53,238.89,255.47,71.06H216.65V85.53h26.77l20.79,112.29-25.86,47.41H117.9a30.73,30.73,0,1,0,4.47,44.42H230.62l37.76-69.26,3.92,21.14a30.7,30.7,0,1,0,14.23-2.64ZM99.17,285.8a16.24,16.24,0,1,1,16.24-16.24A16.26,16.26,0,0,1,99.17,285.8Zm30.2-10.62a31.58,31.58,0,0,0,.52-5.62,30.6,30.6,0,0,0-1.63-9.85H230.45L222,275.18ZM284.85,285.8a16.24,16.24,0,1,1,16.23-16.24A16.26,16.26,0,0,1,284.85,285.8Z"/></svg>